<svg id="Layer_1" data-name="Layer 1" xmlns="http://www.w3.org/2000/svg" viewBox="0 0 425 425"><defs><style>.cls-1,.cls-3{fill:#0f69ae}.cls-1{stroke:#1071b9;stroke-width:18px;}.cls-1,.cls-2{stroke-miterlimit:10;}.cls-2{fill:#1071b9;}.cls-2,.cls-3{stroke:#0f69ae;}.cls-3{stroke-linejoin:round;stroke-width:4px}</style></defs><title>logo-gentlelion</title><circle class="cls-1" cx="212.5" cy="212.5" r="200"/><circle class="cls-2" cx="212.5" cy="212.5" r="175.5"/><path class="cls-3" d="M257.07,319.76V170.5H187.14v17.74h50.47a51.61,51.61,0,0,1-6.76,23.46c-9.52,16.78-28.81,27.89-51.1,27.89-31.56,0-67.89-23.13-67.89-68.72,0-38.83,28.06-69.18,68.39-69.18,20,0,32.57,7.49,40.58,14A88.23,88.23,0,0,1,236.6,133l13.78-12.53a102.26,102.26,0,0,0-19.29-19.79C214.81,88.13,196,84.12,180,84.12c-49.85,0-87.18,37.83-87.18,86.42S129.45,257,179.05,257c33.66,0,51.92-18,59.23-26.92V337.5H303V319.76Z"/></svg>
