<svg id="Layer_1" data-name="Layer 1" xmlns="http://www.w3.org/2000/svg" viewBox="0 0 300 140"><defs><style>.cls-1,.cls-3,.cls-5{fill:#fff;}.cls-1,.cls-3,.cls-4,.cls-5{stroke:#fff;stroke-linejoin:round;}.cls-1{stroke-width:2px;}.cls-2{opacity:0.97;}.cls-3{stroke-width:5px;}.cls-4{fill:none;stroke-width:3px;}.cls-5{stroke-width:0.5px;}</style></defs><title>logo-text</title><path class="cls-1" d="M37.91,37.21H61.43c0,5.12-1.09,12.52-5.71,18.4C50.76,61.9,43.2,65,34.63,65c-16.46,0-29-12.1-29-28.81S18.59,7.3,34.88,7.3a27.18,27.18,0,0,1,17.56,6,32.08,32.08,0,0,1,6.72,7.06l-2.94,2.35a25.78,25.78,0,0,0-5.38-6.22,25.19,25.19,0,0,0-16-5.88c-14.36,0-25.28,11.42-25.28,25.7,0,14,10.58,25.28,25,25.28,9.58,0,16.46-4.87,19.49-9.49a25.06,25.06,0,0,0,3.7-11.59H37.91Z"/><path class="cls-1" d="M97,11.42H73.77V31.75H96.45v3.36H73.77V60.73H97v3.36H70.08v-56H97Z"/><path class="cls-1" d="M105.61,64.09V7.47l47,49.22V8.06h3.7V65.52l-47-49.22v47.8Z"/><path class="cls-1" d="M179.87,11.42V64.09h-3.7V11.42H161.64V8.06H194.4v3.36Z"/><path class="cls-1" d="M203.38,8.06V60.73H219v3.36H199.69v-56Z"/><path class="cls-1" d="M251.18,11.42H228V31.75h22.68v3.36H228V60.73h23.18v3.36H224.3v-56h26.88Z"/><g class="cls-2"><path class="cls-3" d="M77.58,73v50.15H92.74V129H71.48V73Z"/><path class="cls-3" d="M111.78,73v56h-6.1V73Z"/><path class="cls-3" d="M127.69,101c0-16.72,12.77-29,28.6-29s28.6,12.27,28.6,29-12.69,29-28.6,29S127.69,117.67,127.69,101Zm6.26,0c0,12.85,10,23.1,22.34,23.1s22.34-10.25,22.34-23.1-10-23.1-22.34-23.1S134,88.18,134,101Z"/><path class="cls-3" d="M200.79,129V70.62l42.86,45.79V73h6.1v58.55L206.89,85.74V129Z"/></g><line class="cls-4" x1="266.63" y1="7.15" x2="266.63" y2="133.65"/><path class="cls-5" d="M279.46,122.79a3.94,3.94,0,0,0-2.27,3.62,3.28,3.28,0,0,0,3.43,3.43c2,0,2.65-1.38,3.57-3.23a26,26,0,0,1,1.93-3.68,4.05,4.05,0,0,1,3.57-2,5.52,5.52,0,0,1,5.39,5.75,5.26,5.26,0,0,1-1.94,4.28,6,6,0,0,1-2,1.19l-.5-1.05a6.39,6.39,0,0,0,1.77-1,4.43,4.43,0,0,0,1.58-3.46,4.29,4.29,0,0,0-4.26-4.45,3.24,3.24,0,0,0-2.9,1.8c-.31.53-.86,1.6-1.6,3.12-.88,1.82-1.38,2.74-2.43,3.37a4,4,0,0,1-2.1.58,4.48,4.48,0,0,1-4.59-4.73,4.94,4.94,0,0,1,2.63-4.48Z"/><path class="cls-5" d="M277.44,110h17.33v1.22H277.44V116h-1.11V105.23h1.11Z"/><path class="cls-5" d="M276.33,96.93h11.53a7,7,0,0,0,4-.77,5.38,5.38,0,0,0,0-8.57,7,7,0,0,0-4-.77H276.33V85.6h11.53c2,0,3.34.11,4.73,1.05a6.73,6.73,0,0,1,0,10.45c-1.38.94-2.71,1.05-4.73,1.05H276.33Z"/><path class="cls-5" d="M294.77,76.42H276.33V72.77A9.31,9.31,0,0,1,278.9,66a9.65,9.65,0,0,1,13.3,0,9.31,9.31,0,0,1,2.57,6.8Zm-1.11-1.22V72.79c0-4.86-3.32-8.21-8.1-8.21a7.85,7.85,0,0,0-8.13,8.21V75.2Z"/><path class="cls-5" d="M276.33,53.91h18.44v1.22H276.33Z"/><path class="cls-5" d="M285.59,26.6a9.56,9.56,0,1,1-9.51,9.56A9.41,9.41,0,0,1,285.59,26.6Zm0,1.27A8.29,8.29,0,1,0,294,36.16,8.19,8.19,0,0,0,285.59,27.87Z"/><path class="cls-5" d="M279.46,10a3.94,3.94,0,0,0-2.27,3.62,3.28,3.28,0,0,0,3.43,3.43c2,0,2.65-1.38,3.57-3.23a26,26,0,0,1,1.93-3.68,4.05,4.05,0,0,1,3.57-2,5.52,5.52,0,0,1,5.39,5.75,5.26,5.26,0,0,1-1.94,4.28,6,6,0,0,1-2,1.19l-.5-1.05a6.39,6.39,0,0,0,1.77-1A4.43,4.43,0,0,0,294,13.9a4.29,4.29,0,0,0-4.26-4.45,3.24,3.24,0,0,0-2.9,1.8c-.31.53-.86,1.6-1.6,3.12-.88,1.82-1.38,2.74-2.43,3.37a4,4,0,0,1-2.1.58,4.48,4.48,0,0,1-4.59-4.73,4.94,4.94,0,0,1,2.63-4.48Z"/></svg>